<svg xmlns="http://www.w3.org/2000/svg" viewBox="0 0 64 64" width="256" height="256">
  <rect x="2" y="8" width="60" height="54" rx="5" ry="5" fill="#ffffff" fill-opacity="0.08" stroke="#ffffff" stroke-opacity="0.18" stroke-width="2" />
  <rect x="8" y="14" width="48" height="8" rx="2" ry="2" fill="#ffffff" fill-opacity="0.12" />
  <rect x="10" y="26" width="8" height="8" rx="1" ry="1" fill="#ffffff" />
  <rect x="22" y="26" width="8" height="8" rx="1" ry="1" fill="#ffffff" />
  <rect x="34" y="26" width="8" height="8" rx="1" ry="1" fill="#ffffff" />
  <rect x="46" y="26" width="8" height="8" rx="1" ry="1" fill="#ffffff" />
  <rect x="10" y="38" width="8" height="8" rx="1" ry="1" fill="#ffffff" />
  <rect x="22" y="38" width="8" height="8" rx="1" ry="1" fill="#ffffff" />
  <rect x="34" y="38" width="8" height="8" rx="1" ry="1" fill="#ffffff" />
  <rect x="46" y="38" width="8" height="8" rx="1" ry="1" fill="#ffffff" />
</svg>
